<svg width="67" height="13" viewBox="0 0 67 13" fill="none" xmlns="http://www.w3.org/2000/svg">
<path d="M0 10.9267V2.92081L2.23849 0.961914H9.01235L11.2119 2.88674V4.70936H8.56466V3.73843L7.6498 2.93784H3.63998L2.64726 3.80657V10.041L3.63998 10.9097H7.68873L8.64252 10.075V8.21833H5.72275V6.2424H11.2119V10.9267L8.97342 12.8856H2.23849L0 10.9267Z" fill="white"/>
<path d="M12.1406 11.1142V6.17435L14.1455 4.40283H19.7126L21.7175 6.17435V11.1142L19.7126 12.8857H14.1455L12.1406 11.1142ZM18.4668 11.012L19.1481 10.4158V6.87274L18.4668 6.27655H15.3913L14.71 6.87274V10.4158L15.3913 11.012H18.4668Z" fill="white"/>
<path d="M22.8945 0.961914H30.3277L32.4105 2.80157V6.97486L30.3082 8.83155H25.5418V12.8856H22.8945V0.961914ZM29.1209 6.88969L29.8021 6.29351V3.49996L29.1209 2.90377H25.5418V6.88969H29.1209Z" fill="white"/>
<path d="M33.4121 11.0971V4.40283H35.9815V10.3987L36.6433 10.9779H38.2005L40.1081 9.30858V4.40283H42.6775V12.8857H40.3028V11.4378L38.6288 12.8857H35.456L33.4121 11.0971Z" fill="white"/>
<path d="M43.832 0.961914H46.4014V12.8856H43.832V0.961914Z" fill="white"/>
<path d="M47.3906 11.2164V10.1773H49.9211V10.6543L50.3493 11.046H53.5027L53.9309 10.6543V9.9218L53.4832 9.51298H49.2982L47.4685 7.89477V6.03808L49.3177 4.40283H54.3786L56.2667 6.07215V7.11121H53.7363V6.63427L53.308 6.24249H50.4272L49.9989 6.63427V7.29859L50.4466 7.7074H54.6317L56.4614 9.32561V11.2504L54.6122 12.8857H49.2787L47.3906 11.2164Z" fill="white"/>
<path d="M57.4551 11.1482V6.17435L59.46 4.40283H64.9297L66.9541 6.17435V9.39375H60.0245V10.4839L60.6474 11.046H63.8202L64.4041 10.518V10.0751H66.9346V11.1823L65.0075 12.8857H59.4211L57.4551 11.1482ZM64.3847 7.82663V6.83867L63.7229 6.24249H60.6863L60.0245 6.83867V7.82663H64.3847Z" fill="white"/>
</svg>
